# AST/ASF file generated using VICON BodyLanguage
# -----------------------------------------------
:version 1.10
:name VICON
:units
  mass 1.0
  length 0.45
  angle deg
:documentation
   .ast/.asf automatically generated from VICON data using
   VICON BodyBuilder and BodyLanguage model FoxedUp or BRILLIANT.MOD
:root
   order TX TY TZ RX RY RZ
   axis XYZ
   position 0 0 0  
   orientation 0 0 0 
:bonedata
  begin
     id 1 
     name lhipjoint
     direction 0.521452 -0.77106 0.36545 
     length 2.0933 
     axis 0 0 0  XYZ
  end
  begin
     id 2 
     name lfemur
     direction 0.34202 -0.939693 0  
     length 6.83441  
     axis 0 0 20  XYZ
    dof rx ry rz
    limits (-160.0 20.0)
           (-70.0 70.0)
           (-60.0 70.0)
  end
  begin
     id 3 
     name ltibia
     direction 0.34202 -0.939693 0   
     length 7.28749   
     axis 0 0 20   XYZ
    dof rx
    limits (-10.0 170.0)
  end
  begin
     id 4 
     name lfoot
     direction 0.100608 -0.276418 0.955757   
     length 1.52195   
     axis -90 7.62852e-016 20   XYZ
    dof rx rz
    limits (-45.0 90.0)
           (-70.0 20.0)
  end
  begin
     id 5 
     name ltoes
     direction 1.53558e-011 -4.21907e-011 1   
     length 0.770459   
     axis -90 7.62852e-016 20   XYZ
    dof rx
    limits (-90.0 20.0)
  end
  begin
     id 6 
     name rhipjoint
     direction -0.488071 -0.788702 0.373812   
     length 2.04648  
     axis 0 0 0  XYZ 
  end
  begin
     id 7 
     name rfemur
     direction -0.34202 -0.939693 0   
     length 6.92583   
     axis 0 0 -20   XYZ
    dof rx ry rz
    limits (-160.0 20.0)
           (-70.0 70.0)
           (-70.0 60.0)
  end
  begin
     id 8 
     name rtibia
     direction -0.34202 -0.939693 0   
     length 7.41043   
     axis 0 0 -20   XYZ
    dof rx
    limits (-10.0 170.0)
 end
 begin
     id 9 
     name rfoot
     direction -0.0784433 -0.215521 0.973343   
     length 1.67708  
     axis -90 -7.62852e-016 -20   XYZ
    dof rx rz
    limits (-45.0 90.0)
           (-20.0 70.0)
  end
  begin
     id 10 
     name rtoes
     direction -1.53551e-011 -4.21842e-011 1   
     length 0.849787   
     axis -90 -7.62852e-016 -20   XYZ
    dof rx
    limits (-90.0 20.0)
  end
  begin
     id 11 
     name lowerback
     direction -0.0122332 0.997575 -0.0685192   
     length 1.98724   
     axis 0 0 0   XYZ
    dof rx ry rz
    limits (-20.0 45.0)
           (-30.0 30.0)
           (-30.0 30.0)
  end
  begin
     id 12 
     name upperback
     direction 0.0182347 0.999724 -0.0148421   
     length 1.99029   
     axis 0 0 0   XYZ
    dof rx ry rz
    limits (-20.0 45.0)
           (-30.0 30.0)
           (-30.0 30.0)
  end
  begin
     id 13 
     name thorax
     direction 0.0242908 0.99956 0.0170184   
     length 1.99573   
     axis 0 0 0   XYZ
    dof rx ry rz
    limits (-20.0 45.0)
           (-30.0 30.0)
           (-30.0 30.0)
  end
  begin
     id 14 
     name lowerneck
     direction 0.0654488 0.985533 0.156338   
     length 1.4285   
     axis 0 0 0   XYZ
    dof rx ry rz
    limits (-20.0 45.0)
           (-30.0 30.0)
           (-30.0 30.0)
  end
  begin
     id 15 
     name upperneck
     direction -0.02953 0.998556 -0.0448842   
     length 1.44709   
     axis 0 0 0   XYZ
    dof rx ry rz
    limits (-20.0 45.0)
           (-30.0 30.0)
           (-30.0 30.0)
  end
  begin
     id 16
     name head
     direction -0.0155588 0.999386 -0.0314063  
     length 1.44689  
     axis 0 0 0   XYZ
    dof rx ry rz
    limits (-20.0 45.0)
           (-30.0 30.0)
           (-30.0 30.0)
  end
  begin
     id 17 
     name lclavicle
     direction 0.968229 0.236071 -0.0824755  
     length 3.60593  
     axis 0 0 0   XYZ
    dof ry rz
    limits (-20.0 10.0)
           (0.0 20.0)
  end
  begin
     id 18 
     name lhumerus
     direction 1 -4.48968e-011 7.8138e-029   
     length 5.06035   
     axis 180 -30 -90   XYZ
    dof rx ry rz
    limits (-60.0 90.0)
           (-90.0 90.0)
           (-90.0 90.0)
  end
  begin
     id 19
     name lradius
     direction 1 -4.48967e-011 9.02887e-028   
     length 3.1478   
     axis 180 -30 -90   XYZ
    dof rx
    limits (-10.0 170.0)
  end
  begin
     id 20
     name lwrist
     direction 1 -4.48961e-011 7.20928e-028   
     length 1.5739   
     axis -5.52449e-016 90 90   XYZ
    dof ry
    limits (-180.0 0.0)
 end
  begin
     id 21 
     name lhand
     direction 1 -4.48972e-011 1.44186e-027   
     length 0.606747   
     axis -9.20027e-016 90 90   XYZ
    dof rx rz
    limits (-90.0 90.0)
           (-45.0 45.0)
  end
  begin
     id 22 
     name lfingers
     direction 1 -4.48943e-011 2.88371e-027   
     length 0.489175   
     axis -1.84005e-015 90 90   XYZ
    dof rx
    limits (0.0 90.0)
  end
  begin
     id 23
     name lthumb
     direction 0.707107 -6.34917e-011 0.707107   
     length 0.70236   
     axis -90 45 2.85299e-015   XYZ
    dof rx rz
    limits (-45.0 45.0)
           (-45.0 45.0)
  end
  begin
     id 24 
     name rclavicle
     direction -0.978165 0.207816 0.0022268   
     length 3.35425  
     axis 0 0 0   XYZ 
    dof ry rz
    limits (-10.0 20.0)
           (-20.0 0.0)
  end
  begin
     id 25 
     name rhumerus
     direction -1 -4.48964e-011 -4.02159e-027  
     length 5.12273   
     axis 180 30 90   XYZ
    dof rx ry rz
    limits (-90.0 60.0)
           (-90.0 90.0)
           (-90.0 90.0)
  end
  begin
     id 26 
     name rradius
     direction -1 -4.48966e-011 1.62746e-027   
     length 3.422   
     axis 180 30 90   XYZ
    dof rx
    limits (-10.0 170.0)
  end
  begin
     id 27 
     name rwrist
     direction -1 -4.4896e-011 7.20928e-028   
     length 1.711   
     axis -5.52449e-016 -90 -90   XYZ
    dof ry
    limits (-180.0 0.0)
  end
  begin
     id 28
     name rhand
     direction -1 -4.48979e-011 1.44186e-027   
     length 0.704599   
     axis -9.20027e-016 -90 -90   XYZ
    dof rx rz
    limits (-90.0 90.0)
           (-45.0 45.0)
  end
  begin
     id 29
     name rfingers
     direction -1 -4.48962e-011 2.88371e-027   
     length 0.568066   
     axis -1.84005e-015 -90 -90   XYZ
    dof rx
    limits (0.0 90.0)
  end
  begin
     id 30
     name rthumb
     direction -0.707107 -6.34949e-011 0.707107   
     length 0.815633   
     axis -90 -45 -2.85299e-015   XYZ
    dof rx rz
    limits (-45.0 45.0)
           (-45.0 45.0)
  end
:hierarchy
  begin
    root lhipjoint rhipjoint lowerback
    lhipjoint lfemur
    lfemur ltibia
    ltibia lfoot
    lfoot ltoes
    rhipjoint rfemur
    rfemur rtibia
    rtibia rfoot
    rfoot rtoes
    lowerback upperback
    upperback thorax
    thorax lowerneck lclavicle rclavicle
    lowerneck upperneck
    upperneck head
    lclavicle lhumerus
    lhumerus lradius
    lradius lwrist
    lwrist lhand lthumb
    lhand lfingers
    rclavicle rhumerus
    rhumerus rradius
    rradius rwrist
    rwrist rhand rthumb
    rhand rfingers
  end

#!OML:ASF E:\id_vita\Project 1\Capture day 1\Session 1\Male1.ASF
:FULLY-SPECIFIED
:DEGREES
585
root -33.7374 15.9446 -0.835268 381.929 93.3995 375.556
lowerback -5.58532 1.85349 -1.08527
upperback -3.06293 2.58866 -0.114486
thorax -0.0630633 1.33632 0.629277
lowerneck 5.51496 16.058 19.7473
upperneck 7.73876 22.7537 -5.5004
head 4.28642 11.7775 -3.5162
rclavicle -3.35635e-014 5.96354e-016
rhumerus -35.372 -24.2676 -78.1585
rradius 17.8685
rwrist 15.7068
rhand -20.8027 34.2002
rfingers 7.12502
rthumb 5.56488 4.29325
lclavicle -3.35635e-014 5.96354e-016
lhumerus -24.7671 3.51327 88.6825
lradius 11.8763
lwrist -10.1347
lhand -10.7046 45.5081
lfingers 7.12502
lthumb 15.3051 74.9218
rfemur -7.96974 2.45618 17.1228
rtibia 20.8137
rfoot -13.2121 -19.3937
rtoes -13.0042
lfemur -11.418 -2.34243 -15.6492
ltibia 27.801
lfoot -21.3872 14.3878
ltoes -6.43097
586
root -33.7257 15.9444 -0.841904 389.148 92.8009 382.713
lowerback -5.89648 2.13107 -0.980085
upperback -3.01598 2.95631 -0.0359862
thorax 0.152021 1.51821 0.684988
lowerneck 5.22972 16.0408 19.673
upperneck 8.01628 22.6655 -5.29956
head 4.37565 11.7403 -3.42319
rclavicle -3.55887e-014 -3.97569e-016
rhumerus -35.2899 -24.0027 -78.1629
rradius 17.906
rwrist 15.3713
rhand -20.7416 34.1975
rfingers 7.12502
rthumb 5.62387 4.29216
lclavicle -3.55887e-014 -3.97569e-016
lhumerus -24.7587 3.12788 88.9584
lradius 11.9597
lwrist -9.75791
lhand -10.6749 45.4179
lfingers 7.12502
lthumb 15.3337 74.8294
rfemur -8.15254 2.33318 17.1673
rtibia 20.7964
rfoot -13.3531 -18.6449
rtoes -13.2144
lfemur -11.2947 -2.39033 -15.5981
ltibia 27.7982
lfoot -21.2754 15.1134
ltoes -6.80141
587
root -33.7394 15.9532 -0.838125 382.017 93.7791 375.34
lowerback -5.89151 1.79838 -1.0969
upperback -3.13022 2.52317 -0.0293664
thorax 0.0345143 1.30606 0.729401
lowerneck 5.04177 16.1233 19.3923
upperneck 8.2294 22.7063 -4.8883
head 4.39772 11.7664 -3.24845
rclavicle 1.05604e-014 1.19271e-015
rhumerus -35.301 -23.9483 -78.1536
rradius 17.9485
rwrist 15.2464
rhand -20.8433 34.1244
rfingers 7.12502
rthumb 5.52568 4.21643
lclavicle 1.05604e-014 1.19271e-015
lhumerus -24.7406 3.15967 88.9785
lradius 11.9393
lwrist -9.84348
lhand -10.6744 45.2078
lfingers 7.12502
lthumb 15.3341 74.6192
rfemur -8.25702 2.20068 17.2408
rtibia 20.8151
rfoot -13.1322 -19.4818
rtoes -12.9692
lfemur -11.826 -2.43387 -15.4981
ltibia 27.7665
lfoot -21.3157 14.2146
ltoes -7.17047
588
root -33.7515 15.9554 -0.835671 379.849 93.8152 373.205
lowerback -5.66892 1.759 -1.25241
upperback -3.17697 2.47555 -0.0540895
thorax -0.141687 1.28532 0.778983
lowerneck 5.12951 16.0426 19.6281
upperneck 8.10996 22.6401 -5.17451
head 4.39816 11.7308 -3.373
rclavicle 1.65488e-014 7.15625e-015
rhumerus -35.3147 -23.8878 -78.1806
rradius 17.9476
rwrist 15.2501
rhand -21.0158 34.0752
rfingers 7.12502
rthumb 5.35914 4.16292
lclavicle 1.65488e-014 7.15625e-015
lhumerus -24.6898 3.81804 88.7511
lradius 11.7706
lwrist -10.5188
lhand -10.6544 45.0561
lfingers 7.12502
lthumb 15.3534 74.4661
rfemur -8.2491 2.04978 17.1167
rtibia 20.8404
rfoot -13.0628 -19.3964
rtoes -13.2202
lfemur -11.8121 -2.69746 -15.6307
ltibia 27.7208
lfoot -21.2037 14.4018
ltoes -6.32096
589
root -33.7389 15.9485 -0.845604 379.703 93.597 373.254
lowerback -5.69611 1.84765 -1.21594
upperback -3.07208 2.58963 -0.0821302
thorax -0.0183693 1.33889 0.739417
lowerneck 5.06816 16.05 19.5908
upperneck 8.08737 22.6327 -5.15767
head 4.39358 11.724 -3.36086
rclavicle 5.59082e-016 -3.77691e-015
rhumerus -35.2872 -23.8408 -78.1914
rradius 17.9724
rwrist 15.2155
rhand -21.0118 33.9813
rfingers 7.12502
rthumb 5.36297 4.06917
lclavicle 5.59082e-016 -3.77691e-015
lhumerus -24.6383 3.88682 88.7632
lradius 11.7255
lwrist -10.6042
lhand -10.6091 45.1492
lfingers 7.12502
lthumb 15.397 74.5558
rfemur -8.03316 1.86036 16.9947
rtibia 20.8644
rfoot -13.4972 -18.9618
rtoes -12.5329
lfemur -11.4439 -3.57121 -15.7993
ltibia 27.7015
lfoot -21.0208 15.3652
ltoes -5.60044
590
root -33.7345 15.9493 -0.836945 385.796 93.0184 379.232
lowerback -5.90031 2.04283 -1.19368
upperback -3.08857 2.85205 -0.0420446
thorax 0.0712493 1.47031 0.790204
lowerneck 5.09064 16.0724 19.6103
upperneck 8.02293 22.668 -5.20148
head 4.38115 11.7387 -3.37606
rclavicle 2.34939e-014 5.56597e-015
rhumerus -35.2473 -23.8362 -78.2495
rradius 17.9578
rwrist 15.3155
rhand -21.1828 33.8693
rfingers 7.12502
rthumb 5.19789 3.95303
lclavicle 2.34939e-014 5.56597e-015
lhumerus -24.6483 3.73321 88.7674
lradius 11.7782
lwrist -10.3897
lhand -10.7466 45.4231
lfingers 7.12502
lthumb 15.2646 74.8399
rfemur -8.30616 2.2459 17.1214
rtibia 20.9198
rfoot -13.6879 -18.6822
rtoes -12.0384
lfemur -11.4085 -3.26649 -15.6592
ltibia 27.6724
lfoot -20.9505 15.695
ltoes -6.45595
